# xmcd CD database file
#
# Track frame offsets:
#	150
#	13125
#	26850
#	41325
#	53325
#	65225
#	81750
#	92700
#	103950
#	118050
#	132225
#	145800
#	159525
#	185125
#
# Disc length: 2665 seconds
#
# Revision: 0
# Processed by: cddbd v1.5.1PL0 Copyright (c) Steve Scherf et al.
# Submitted via: CDex 1.51
#
DISCID=c60a670e
DTITLE=Famous Jazz Singer - Vol. 3
DYEAR=1990
DGENRE=Jazz
TTITLE0=Dinah - Bing Crosby and The Mills Bros.
TTITLE1=Chasin' Shadows - Louis Prima and His New Orleans Gang
TTITLE2=Blue Again - Louis Armstrong and His Orchestra
TTITLE3=When My Baby Left - Eddy "Cleanhead" Vinson and Cootie Williama and His Orchestra
TTITLE4=Palm Springs Jump - Slim Gaillard and His Flat Floogie Boys
TTITLE5=Nat Meets June - Nat "King" Cole and Julie Christy with The Metronome Allstars
TTITLE6=Hey! Bartender, Give That Man A Drink - Joe Williams with Red Saunders and His Orchestra
TTITLE7=Easy To Love - Jonny Manthis
TTITLE8=Frankie And Jonny - Shick Bullock and His Levee Loungers
TTITLE9=I'm Crazy 'bout You Baby - Fats Waller with Ted Lewis and His Orchestra
TTITLE10=Knock Me A Kiss - Roy Eldridge con Gene Krupa and la sua orch.
TTITLE11=Take Me Back, Baby - Jimmy Rushing with Count Basie and His Orchestra
TTITLE12=Russian Lulaby - Jimmy Rushing
TTITLE13=Charlston Alley - Lambert, Hendricks and Ross
EXTD=YEAR: 1990
EXTT0=
EXTT1=
EXTT2=
EXTT3=
EXTT4=
EXTT5=
EXTT6=
EXTT7=
EXTT8=
EXTT9=
EXTT10=
EXTT11=
EXTT12=
EXTT13=
PLAYORDER=
